<svg width="15" height="16" viewBox="0 0 15 16" fill="none" xmlns="http://www.w3.org/2000/svg">
<g clip-path="url(#clip0_1_20545)">
<path d="M7.5 0.5C8.01856 0.5 8.4375 0.918945 8.4375 1.4375V2.375H9.375C9.75293 2.375 10.0957 2.60352 10.2422 2.95508C10.3887 3.30664 10.3066 3.70801 10.04 3.97754L8.16504 5.85254C7.79883 6.21875 7.2041 6.21875 6.83789 5.85254L4.96289 3.97754C4.69336 3.70801 4.61426 3.30664 4.76074 2.95508C4.90723 2.60352 5.24707 2.375 5.62793 2.375H6.56543V1.4375C6.56543 0.918945 6.98438 0.5 7.50293 0.5L7.5 0.5ZM4.96289 12.0254L6.83789 10.1504C7.2041 9.78418 7.79883 9.78418 8.16504 10.1504L10.04 12.0254C10.3096 12.2949 10.3887 12.6963 10.2422 13.0479C10.0957 13.3994 9.75586 13.6279 9.375 13.6279H8.4375V14.5654C8.4375 15.084 8.01856 15.5029 7.5 15.5029C6.98145 15.5029 6.5625 15.084 6.5625 14.5654V13.6279H5.625C5.24707 13.6279 4.9043 13.3994 4.75781 13.0479C4.61133 12.6963 4.69336 12.2949 4.95996 12.0254H4.96289ZM0.9375 7.0625H1.875V6.125C1.875 5.74707 2.10352 5.4043 2.45508 5.25781C2.80664 5.11133 3.20801 5.19336 3.47754 5.45996L5.35254 7.33496C5.71875 7.70117 5.71875 8.2959 5.35254 8.66211L3.47754 10.5371C3.20801 10.8066 2.80664 10.8857 2.45508 10.7393C2.10352 10.5928 1.875 10.2529 1.875 9.87207V8.93457H0.9375C0.418945 8.93457 0 8.51562 0 7.99707C0 7.47852 0.418945 7.05957 0.9375 7.05957V7.0625ZM9.65039 8.66211C9.28418 8.2959 9.28418 7.70117 9.65039 7.33496L11.5254 5.45996C11.7949 5.19043 12.1963 5.11133 12.5479 5.25781C12.8994 5.4043 13.1279 5.74414 13.1279 6.125V7.0625H14.0654C14.584 7.0625 15.0029 7.48145 15.0029 8C15.0029 8.51856 14.584 8.9375 14.0654 8.9375H13.1279V9.875C13.1279 10.2529 12.8994 10.5957 12.5479 10.7422C12.1963 10.8887 11.7949 10.8066 11.5254 10.54L9.65039 8.66504V8.66211ZM7.5 7.0625C7.74864 7.0625 7.9871 7.16127 8.16291 7.33709C8.33873 7.5129 8.4375 7.75136 8.4375 8C8.4375 8.24864 8.33873 8.4871 8.16291 8.66291C7.9871 8.83873 7.74864 8.9375 7.5 8.9375C7.25136 8.9375 7.0129 8.83873 6.83709 8.66291C6.66127 8.4871 6.5625 8.24864 6.5625 8C6.5625 7.75136 6.66127 7.5129 6.83709 7.33709C7.0129 7.16127 7.25136 7.0625 7.5 7.0625Z" fill="white"/>
</g>
<defs>
<clipPath id="clip0_1_20545">
<rect width="15" height="15" fill="white" transform="translate(0 0.5)"/>
</clipPath>
</defs>
</svg>
