<svg width="15" height="16" viewBox="0 0 15 16" fill="none" xmlns="http://www.w3.org/2000/svg">
<path d="M1.875 2.375C1.875 1.85645 1.45605 1.4375 0.9375 1.4375C0.418945 1.4375 0 1.85645 0 2.375V12.2188C0 13.5137 1.04883 14.5625 2.34375 14.5625H14.0625C14.5811 14.5625 15 14.1436 15 13.625C15 13.1064 14.5811 12.6875 14.0625 12.6875H2.34375C2.08594 12.6875 1.875 12.4766 1.875 12.2188V2.375ZM13.7871 4.91211C14.1533 4.5459 14.1533 3.95117 13.7871 3.58496C13.4209 3.21875 12.8262 3.21875 12.46 3.58496L9.375 6.67285L7.69336 4.99121C7.32715 4.625 6.73242 4.625 6.36621 4.99121L3.08496 8.27246C2.71875 8.63867 2.71875 9.2334 3.08496 9.59961C3.45117 9.96582 4.0459 9.96582 4.41211 9.59961L7.03125 6.9834L8.71289 8.66504C9.0791 9.03125 9.67383 9.03125 10.04 8.66504L13.79 4.91504L13.7871 4.91211Z" fill="white"/>
</svg>
