<svg width="16" height="14" viewBox="0 0 16 14" fill="none" xmlns="http://www.w3.org/2000/svg">
<path d="M7.34725 0.142175C7.76114 -0.0464966 8.23892 -0.0464966 8.6528 0.142175L14.725 2.90389C14.9611 3.01053 15.1111 3.24296 15.1111 3.49999C15.1111 3.75702 14.9611 3.98944 14.725 4.09608L8.6528 6.8578C8.23892 7.04647 7.76114 7.04647 7.34725 6.8578L1.27503 4.09608C1.03892 3.98671 0.888916 3.75428 0.888916 3.49999C0.888916 3.24569 1.03892 3.01053 1.27503 2.90389L7.34725 0.142175ZM13.2472 5.73124L14.725 6.40389C14.9611 6.51053 15.1111 6.74296 15.1111 6.99999C15.1111 7.25702 14.9611 7.48944 14.725 7.59608L8.6528 10.3578C8.23892 10.5465 7.76114 10.5465 7.34725 10.3578L1.27503 7.59608C1.03892 7.48671 0.888916 7.25428 0.888916 6.99999C0.888916 6.74569 1.03892 6.51053 1.27503 6.40389L2.7528 5.73124L6.97503 7.65077C7.62503 7.94608 8.37503 7.94608 9.02503 7.65077L13.2472 5.73124ZM9.02503 11.1508L13.2472 9.23124L14.725 9.90389C14.9611 10.0105 15.1111 10.243 15.1111 10.5C15.1111 10.757 14.9611 10.9894 14.725 11.0961L8.6528 13.8578C8.23892 14.0465 7.76114 14.0465 7.34725 13.8578L1.27503 11.0961C1.03892 10.9867 0.888916 10.7543 0.888916 10.5C0.888916 10.2457 1.03892 10.0105 1.27503 9.90389L2.7528 9.23124L6.97503 11.1508C7.62503 11.4461 8.37503 11.4461 9.02503 11.1508Z" fill="black"/>
</svg>
