<svg width="18" height="15" viewBox="0 0 18 15" fill="none" xmlns="http://www.w3.org/2000/svg">
<g clip-path="url(#clip0_1_21047)">
<path d="M17.4943 7.48535C17.4943 8.0127 17.0516 8.42578 16.5499 8.42578H15.6054L15.6261 13.1191C15.6261 13.1982 15.6202 13.2773 15.6113 13.3564V13.8311C15.6113 14.4785 15.083 15.0029 14.4308 15.0029H13.9586C13.9261 15.0029 13.8936 15.0029 13.8612 15C13.8198 15.0029 13.7785 15.0029 13.7372 15.0029L12.778 15H12.0697C11.4174 15 10.8891 14.4756 10.8891 13.8281V13.125V11.25C10.8891 10.7314 10.4671 10.3125 9.94467 10.3125H8.05578C7.53338 10.3125 7.11133 10.7314 7.11133 11.25V13.125V13.8281C7.11133 14.4756 6.58303 15 5.93078 15H5.22244H4.28095C4.23668 15 4.19241 14.9971 4.14814 14.9941C4.11272 14.9971 4.07731 15 4.04189 15H3.56967C2.91741 15 2.38911 14.4756 2.38911 13.8281V10.5469C2.38911 10.5205 2.38911 10.4912 2.39206 10.4648V8.42285H1.44762C0.916368 8.42285 0.503174 8.0127 0.503174 7.48242C0.503174 7.21875 0.591715 6.98438 0.798313 6.7793L8.36272 0.234375C8.56932 0.0292969 8.80543 0 9.01203 0C9.21863 0 9.45474 0.0585938 9.63182 0.205078L17.1697 6.78223C17.4058 6.98731 17.5238 7.22168 17.4943 7.48535Z" fill="black"/>
</g>
<defs>
<clipPath id="clip0_1_21047">
<rect width="17" height="15" fill="white" transform="translate(0.5)"/>
</clipPath>
</defs>
</svg>
