<svg width="8" height="8" viewBox="0 0 8 8" fill="none" xmlns="http://www.w3.org/2000/svg">
<g clip-path="url(#clip0_179_3977)">
<path d="M3.96155 6.66907C3.211 6.66907 2.49119 6.37092 1.96047 5.8402C1.42975 5.30948 1.13159 4.58967 1.13159 3.83911C1.13159 3.08856 1.42975 2.36875 1.96047 1.83803C2.49119 1.30731 3.211 1.00916 3.96155 1.00916C4.7121 1.00916 5.43191 1.30731 5.96263 1.83803C6.49335 2.36875 6.79151 3.08856 6.79151 3.83911C6.79151 4.58967 6.49335 5.30948 5.96263 5.8402C5.43191 6.37092 4.7121 6.66907 3.96155 6.66907V6.66907Z" stroke="white" stroke-width="0.419253" stroke-linecap="round" stroke-linejoin="round"/>
<path d="M3.9614 4.23213V4.15352C3.9614 3.89662 4.12019 3.75733 4.2793 3.65042C4.43463 3.54571 4.59028 3.40924 4.59028 3.15769C4.59028 2.9909 4.52402 2.83094 4.40608 2.713C4.28815 2.59507 4.12819 2.52881 3.9614 2.52881C3.79461 2.52881 3.63465 2.59507 3.51671 2.713C3.39878 2.83094 3.33252 2.9909 3.33252 3.15769" stroke="white" stroke-width="0.419253" stroke-linecap="round" stroke-linejoin="round"/>
<path d="M3.96111 5.0968C3.91771 5.0968 3.8825 5.13202 3.88281 5.17541C3.88281 5.2188 3.91803 5.25402 3.96142 5.25402C4.00481 5.25402 4.04003 5.2188 4.04003 5.17541C4.04003 5.13202 4.00481 5.0968 3.96111 5.0968" stroke="white" stroke-width="0.419253" stroke-linecap="round" stroke-linejoin="round"/>
</g>
<defs>
<clipPath id="clip0_179_3977">
<rect width="7.54656" height="7.54656" fill="white" transform="translate(0.188232 0.0657959)"/>
</clipPath>
</defs>
</svg>
