<svg width="18" height="16" viewBox="0 0 18 16" fill="none" xmlns="http://www.w3.org/2000/svg">
<g clip-path="url(#clip0_32_796)">
<path d="M9.75 0.75V1.07812C9.95 1.11563 10.1438 1.1625 10.3188 1.20938C10.7188 1.31563 10.9563 1.72812 10.85 2.12812C10.7438 2.52813 10.3312 2.76562 9.93125 2.65937C9.59062 2.56875 9.27188 2.50625 8.9875 2.50312C8.75938 2.5 8.52813 2.55625 8.38125 2.64062C8.31563 2.68125 8.28438 2.71563 8.27188 2.73438C8.2625 2.75 8.25 2.77188 8.25 2.82188C8.25 2.83125 8.25 2.8375 8.25 2.84063C8.25625 2.84687 8.27812 2.87812 8.35312 2.92188C8.53437 3.03125 8.80313 3.11562 9.20938 3.2375L9.2375 3.24688C9.58438 3.35 10.0469 3.49062 10.4219 3.725C10.85 3.99375 11.2375 4.44063 11.2469 5.12813C11.2562 5.83125 10.8906 6.34375 10.4125 6.64375C10.2031 6.77188 9.97812 6.8625 9.74687 6.91875V7.25C9.74687 7.66563 9.4125 8 8.99687 8C8.58125 8 8.24687 7.66563 8.24687 7.25V6.89375C7.95 6.82188 7.67812 6.72813 7.44688 6.65C7.38125 6.62813 7.31875 6.60625 7.25938 6.5875C6.86562 6.45625 6.65313 6.03125 6.78438 5.6375C6.91563 5.24375 7.34062 5.03125 7.73438 5.1625C7.81563 5.19062 7.89062 5.21562 7.9625 5.24062C8.3875 5.38438 8.69375 5.4875 9.02188 5.5C9.27188 5.50938 9.49375 5.45 9.62187 5.37187C9.68125 5.33437 9.70938 5.30312 9.72188 5.28125C9.73438 5.2625 9.75 5.225 9.74687 5.15312V5.14687C9.74687 5.11562 9.74687 5.08125 9.62187 5.00313C9.44375 4.89062 9.175 4.80312 8.775 4.68125L8.71562 4.6625C8.37813 4.5625 7.93437 4.42812 7.57812 4.2125C7.15625 3.95938 6.75 3.525 6.74687 2.83437C6.74375 2.11875 7.15 1.62812 7.6125 1.35312C7.8125 1.23438 8.02812 1.15312 8.24375 1.09687L8.25 0.75C8.25 0.334375 8.58438 0 9 0C9.41562 0 9.75 0.334375 9.75 0.75ZM17.7563 10.5094C18.1656 11.0656 18.0469 11.8469 17.4906 12.2563L13.5344 15.1719C12.8031 15.7094 11.9219 16 11.0125 16H6H1C0.446875 16 0 15.5531 0 15V13C0 12.4469 0.446875 12 1 12H2.15L3.55312 10.875C4.2625 10.3062 5.14375 10 6.05312 10H8.5H9H11C11.5531 10 12 10.4469 12 11C12 11.5531 11.5531 12 11 12H9H8.5C8.225 12 8 12.225 8 12.5C8 12.775 8.225 13 8.5 13H12.2688L16.0094 10.2437C16.5656 9.83437 17.3469 9.95312 17.7563 10.5094ZM6.05 12H6.02187C6.03125 12 6.04063 12 6.05 12Z" fill="white"/>
</g>
<defs>
<clipPath id="clip0_32_796">
<rect width="18" height="16" fill="white"/>
</clipPath>
</defs>
</svg>
