<svg width="16" height="16" viewBox="0 0 16 16" fill="none" xmlns="http://www.w3.org/2000/svg">
<g clip-path="url(#clip0_32_791)">
<path d="M9.95615 0.293793C9.56553 -0.0968323 8.93115 -0.0968323 8.54053 0.293793L4.79053 4.04379C4.3999 4.43442 4.3999 5.06879 4.79053 5.45942L5.29053 5.95942C5.68115 6.35004 6.31553 6.35004 6.70615 5.95942L6.83115 5.83442L10.1687 9.16879L10.0437 9.29379C9.65303 9.68442 9.65303 10.3188 10.0437 10.7094L10.5437 11.2094C10.9343 11.6 11.5687 11.6 11.9593 11.2094L15.7093 7.45942C16.0999 7.06879 16.0999 6.43442 15.7093 6.04379L15.2093 5.54379C14.8187 5.15317 14.1843 5.15317 13.7937 5.54379L13.6687 5.66879L10.3312 2.33129L10.4562 2.20629C10.8468 1.81567 10.8468 1.18129 10.4562 0.790668L9.95615 0.290668V0.293793ZM5.20615 9.29379C4.81553 8.90317 4.18115 8.90317 3.79053 9.29379L0.290527 12.7938C-0.100098 13.1844 -0.100098 13.8188 0.290527 14.2094L1.79053 15.7094C2.18115 16.1 2.81553 16.1 3.20615 15.7094L6.70615 12.2094C7.09678 11.8188 7.09678 11.1844 6.70615 10.7938L6.6624 10.75L8.4999 8.91567L7.08428 7.50004L5.2499 9.33442L5.20615 9.29067V9.29379Z" fill="white"/>
</g>
<defs>
<clipPath id="clip0_32_791">
<rect width="16" height="16" fill="white"/>
</clipPath>
</defs>
</svg>
