<svg width="18" height="15" viewBox="0 0 18 15" fill="none" xmlns="http://www.w3.org/2000/svg">
<path d="M16.3069 7.81989C17.896 6.27497 17.896 3.77302 16.3069 2.2281C14.9006 0.860908 12.6844 0.683174 11.0672 1.807L11.0222 1.83708C10.6172 2.11872 10.5244 2.6656 10.8141 3.05661C11.1038 3.44763 11.6663 3.5406 12.0685 3.25895L12.1135 3.22888C13.0163 2.60271 14.251 2.70114 15.0328 3.46403C15.9188 4.32536 15.9188 5.71989 15.0328 6.58122L11.8772 9.65466C10.9913 10.516 9.55689 10.516 8.67095 9.65466C7.88626 8.89177 7.78501 7.69138 8.42908 6.81638L8.46001 6.77263C8.7497 6.37888 8.65408 5.832 8.25189 5.5531C7.8497 5.27419 7.28439 5.36442 6.99751 5.75544L6.96658 5.79919C5.80783 7.36872 5.99064 9.52341 7.39689 10.8906C8.98595 12.4355 11.5594 12.4355 13.1485 10.8906L16.3069 7.81989ZM1.69314 7.18005C0.104077 8.72497 0.104077 11.2269 1.69314 12.7718C3.09939 14.139 5.31564 14.3168 6.93283 13.1929L6.97783 13.1629C7.38283 12.8812 7.47564 12.3343 7.18595 11.9433C6.89626 11.5523 6.33376 11.4593 5.93158 11.741L5.88658 11.7711C4.98376 12.3972 3.74908 12.2988 2.9672 11.5359C2.08126 10.6718 2.08126 9.27731 2.9672 8.41599L6.12283 5.34528C7.00876 4.48395 8.44314 4.48395 9.32908 5.34528C10.1138 6.10817 10.215 7.30856 9.57095 8.1863L9.54001 8.23005C9.25033 8.6238 9.34595 9.17067 9.74814 9.44958C10.1503 9.72849 10.7156 9.63825 11.0025 9.24724L11.0335 9.20349C12.1922 7.63122 12.0094 5.47653 10.6031 4.10935C9.01408 2.56442 6.44064 2.56442 4.85158 4.10935L1.69314 7.18005Z" fill="black"/>
</svg>
