<svg width="20" height="20" viewBox="0 0 20 20" fill="none" xmlns="http://www.w3.org/2000/svg">
<path d="M1.5625 1.875C1.04297 1.875 0.625 2.29297 0.625 2.8125V4.6875C0.625 5.20703 1.04297 5.625 1.5625 5.625H3.4375C3.95703 5.625 4.375 5.20703 4.375 4.6875V2.8125C4.375 2.29297 3.95703 1.875 3.4375 1.875H1.5625ZM7.5 2.5C6.80859 2.5 6.25 3.05859 6.25 3.75C6.25 4.44141 6.80859 5 7.5 5H18.75C19.4414 5 20 4.44141 20 3.75C20 3.05859 19.4414 2.5 18.75 2.5H7.5ZM7.5 8.75C6.80859 8.75 6.25 9.30859 6.25 10C6.25 10.6914 6.80859 11.25 7.5 11.25H18.75C19.4414 11.25 20 10.6914 20 10C20 9.30859 19.4414 8.75 18.75 8.75H7.5ZM7.5 15C6.80859 15 6.25 15.5586 6.25 16.25C6.25 16.9414 6.80859 17.5 7.5 17.5H18.75C19.4414 17.5 20 16.9414 20 16.25C20 15.5586 19.4414 15 18.75 15H7.5ZM0.625 9.0625V10.9375C0.625 11.457 1.04297 11.875 1.5625 11.875H3.4375C3.95703 11.875 4.375 11.457 4.375 10.9375V9.0625C4.375 8.54297 3.95703 8.125 3.4375 8.125H1.5625C1.04297 8.125 0.625 8.54297 0.625 9.0625ZM1.5625 14.375C1.04297 14.375 0.625 14.793 0.625 15.3125V17.1875C0.625 17.707 1.04297 18.125 1.5625 18.125H3.4375C3.95703 18.125 4.375 17.707 4.375 17.1875V15.3125C4.375 14.793 3.95703 14.375 3.4375 14.375H1.5625Z" fill="#9F9F9F"/>
</svg>
