<svg width="20" height="20" viewBox="0 0 20 20" fill="none" xmlns="http://www.w3.org/2000/svg">
<rect x="0.25" y="0.25" width="19.5" height="19.5" rx="9.75" fill="#222222"/>
<rect x="0.25" y="0.25" width="19.5" height="19.5" rx="9.75" stroke="#FF9900" stroke-width="0.5"/>
<path d="M12.25 10C12.25 10.5203 12.2219 11.0219 12.1727 11.5H7.82969C7.77812 11.0219 7.75234 10.5203 7.75234 10C7.75234 9.47969 7.78047 8.97813 7.82969 8.5H12.1727C12.2242 8.97813 12.25 9.47969 12.25 10ZM12.925 8.5H15.8102C15.9344 8.98047 16 9.48203 16 10C16 10.518 15.9344 11.0195 15.8102 11.5H12.925C12.9742 11.0172 13 10.5156 13 10C13 9.48438 12.9742 8.98281 12.925 8.5ZM15.5641 7.75H12.8289C12.5945 6.25234 12.1305 4.99844 11.5328 4.19687C13.368 4.68203 14.8609 6.01328 15.5617 7.75H15.5641ZM12.0695 7.75H7.93047C8.07344 6.89687 8.29375 6.14219 8.56328 5.53047C8.80937 4.97734 9.08359 4.57656 9.34844 4.32344C9.61094 4.075 9.82891 4 10 4C10.1711 4 10.3891 4.075 10.6516 4.32344C10.9164 4.57656 11.1906 4.97734 11.4367 5.53047C11.7086 6.13984 11.9266 6.89453 12.0695 7.75ZM7.17109 7.75H4.43594C5.13906 6.01328 6.62969 4.68203 8.46719 4.19687C7.86953 4.99844 7.40547 6.25234 7.17109 7.75ZM4.18984 8.5H7.075C7.02578 8.98281 7 9.48438 7 10C7 10.5156 7.02578 11.0172 7.075 11.5H4.18984C4.06563 11.0195 4 10.518 4 10C4 9.48203 4.06563 8.98047 4.18984 8.5ZM8.56328 14.4672C8.29141 13.8578 8.07344 13.1031 7.93047 12.25H12.0695C11.9266 13.1031 11.7062 13.8578 11.4367 14.4672C11.1906 15.0203 10.9164 15.4211 10.6516 15.6742C10.3891 15.925 10.1711 16 10 16C9.82891 16 9.61094 15.925 9.34844 15.6766C9.08359 15.4234 8.80937 15.0227 8.56328 14.4695V14.4672ZM7.17109 12.25C7.40547 13.7477 7.86953 15.0016 8.46719 15.8031C6.62969 15.318 5.13906 13.9867 4.43594 12.25H7.17109ZM15.5641 12.25C14.8609 13.9867 13.3703 15.318 11.5352 15.8031C12.1328 15.0016 12.5945 13.7477 12.8312 12.25H15.5664H15.5641Z" fill="#FF9900"/>
</svg>
