<svg width="20" height="20" viewBox="0 0 20 20" fill="none" xmlns="http://www.w3.org/2000/svg">
<rect x="0.25" y="0.25" width="19.5" height="19.5" rx="9.75" fill="#222222"/>
<rect x="0.25" y="0.25" width="19.5" height="19.5" rx="9.75" stroke="#FF9900" stroke-width="0.5"/>
<path d="M15.7672 8.24405C15.7742 8.34143 15.7742 8.44097 15.7742 8.53835C15.7742 11.5398 13.2992 15 8.77578 15C7.38125 15 6.0875 14.6278 5 13.9808C5.19687 14.0024 5.38906 14.0089 5.59297 14.0089C6.74375 14.0089 7.80078 13.6497 8.64688 13.0394C7.56641 13.0178 6.65937 12.3643 6.34766 11.4641C6.5 11.4857 6.65234 11.4987 6.81172 11.4987C7.03203 11.4987 7.25234 11.4705 7.45859 11.4208C6.33125 11.2109 5.4875 10.2955 5.4875 9.19187V9.16374C5.81562 9.33253 6.19531 9.43857 6.59844 9.45155C5.93516 9.04472 5.50156 8.34792 5.50156 7.56023C5.50156 7.13825 5.62344 6.7509 5.83672 6.41332C7.04844 7.79178 8.86719 8.69199 10.9086 8.78937C10.8711 8.62058 10.8477 8.4453 10.8477 8.27002C10.8477 7.01924 11.9445 6 13.3062 6C14.0141 6 14.6539 6.27483 15.1039 6.71628C15.6594 6.6189 16.1938 6.42847 16.6648 6.16879C16.482 6.6968 16.093 7.13825 15.5844 7.41957C16.0789 7.3698 16.5594 7.24429 17 7.06901C16.6648 7.51912 16.2453 7.91945 15.7672 8.24405Z" fill="#FF9900"/>
</svg>
