<svg width="20" height="20" viewBox="0 0 20 20" fill="none" xmlns="http://www.w3.org/2000/svg">
<rect x="0.25" y="0.25" width="19.5" height="19.5" rx="9.75" fill="#222222"/>
<rect x="0.25" y="0.25" width="19.5" height="19.5" rx="9.75" stroke="#FF9900" stroke-width="0.5"/>
<path d="M13.7143 11.5625H9.85714C9.68036 11.5625 9.53571 11.4219 9.53571 11.25V6.25C9.53571 6.07812 9.68036 5.9375 9.85714 5.9375H12.6717L14.0357 7.26367V11.25C14.0357 11.4219 13.8911 11.5625 13.7143 11.5625ZM9.85714 12.5H13.7143C14.4234 12.5 15 11.9395 15 11.25V7.26367C15 7.01562 14.8975 6.77734 14.7167 6.60156L13.3547 5.27539C13.1739 5.09961 12.9288 5 12.6737 5H9.85714C9.14799 5 8.57143 5.56055 8.57143 6.25V11.25C8.57143 11.9395 9.14799 12.5 9.85714 12.5ZM7.28571 7.5C6.57656 7.5 6 8.06055 6 8.75V13.75C6 14.4395 6.57656 15 7.28571 15H11.1429C11.852 15 12.4286 14.4395 12.4286 13.75V13.125H11.4643V13.75C11.4643 13.9219 11.3196 14.0625 11.1429 14.0625H7.28571C7.10893 14.0625 6.96429 13.9219 6.96429 13.75V8.75C6.96429 8.57812 7.10893 8.4375 7.28571 8.4375H7.92857V7.5H7.28571Z" fill="#FF9900"/>
</svg>
