<svg width="20" height="20" viewBox="0 0 20 20" fill="none" xmlns="http://www.w3.org/2000/svg">
<rect x="0.25" y="0.25" width="19.5" height="19.5" rx="9.75" fill="#222222"/>
<rect x="0.25" y="0.25" width="19.5" height="19.5" rx="9.75" stroke="#FF9900" stroke-width="0.5"/>
<path d="M14.1733 6.67551C14.1698 6.66973 14.164 6.66529 14.157 6.66301C13.3796 6.35084 12.5591 6.12816 11.7163 6.00053C11.7087 5.99931 11.7009 6.00021 11.6939 6.00309C11.687 6.00598 11.6812 6.0107 11.6775 6.0166C11.5657 6.19414 11.4642 6.37651 11.3734 6.56301C10.4644 6.44228 9.53972 6.44228 8.63068 6.56301C8.53952 6.37605 8.43665 6.19364 8.32253 6.0166C8.31859 6.01088 8.31281 6.0063 8.30591 6.00344C8.29901 6.00058 8.2913 5.99957 8.28375 6.00053C7.43941 6.12758 6.61757 6.35028 5.83894 6.66301C5.83211 6.66554 5.82639 6.66992 5.82262 6.67551C4.26757 8.70937 3.84105 10.6914 4.04921 12.6503C4.0498 12.6552 4.05156 12.66 4.05437 12.6643C4.05718 12.6686 4.06098 12.6724 4.06554 12.6753C4.97135 13.2616 5.98435 13.709 7.06135 13.9985C7.06909 14.0006 7.07738 14.0005 7.08507 13.9983C7.09276 13.996 7.09945 13.9917 7.1042 13.986C7.33528 13.7107 7.54005 13.4193 7.71642 13.1146C7.71877 13.1104 7.72011 13.1058 7.72034 13.1012C7.72058 13.0965 7.71971 13.0918 7.7178 13.0875C7.71588 13.0831 7.71296 13.0792 7.70921 13.0758C7.70546 13.0725 7.70097 13.0699 7.69602 13.0682C7.37246 12.9597 7.05925 12.8289 6.75932 12.6771C6.75402 12.6743 6.74957 12.6703 6.74636 12.6657C6.74315 12.661 6.74127 12.6558 6.74087 12.6503C6.74047 12.6449 6.74156 12.6395 6.74406 12.6345C6.74656 12.6295 6.7504 12.6252 6.75523 12.6217C6.8185 12.5807 6.88176 12.5378 6.94094 12.495C6.94617 12.491 6.95258 12.4883 6.95944 12.4874C6.96631 12.4864 6.97334 12.4872 6.97972 12.4896C8.94291 13.2735 11.0694 13.2735 13.0101 12.4896C13.0163 12.487 13.0232 12.4859 13.0301 12.4865C13.0369 12.4871 13.0435 12.4895 13.0489 12.4932C13.1081 12.536 13.1713 12.5807 13.2346 12.6217C13.2394 12.6252 13.2433 12.6295 13.2458 12.6345C13.2483 12.6395 13.2494 12.6449 13.249 12.6503C13.2486 12.6558 13.2467 12.661 13.2435 12.6657C13.2403 12.6703 13.2358 12.6743 13.2305 12.6771C12.9314 12.8297 12.618 12.9599 12.2938 13.0664C12.2889 13.0681 12.2844 13.0707 12.2806 13.074C12.2769 13.0774 12.2739 13.0813 12.272 13.0857C12.2701 13.09 12.2692 13.0947 12.2695 13.0994C12.2697 13.104 12.2711 13.1086 12.2734 13.1128C12.4529 13.416 12.6575 13.7072 12.8856 13.9842C12.8904 13.9899 12.8971 13.9942 12.9048 13.9965C12.9124 13.9987 12.9207 13.9988 12.9285 13.9967C14.0086 13.7085 15.0245 13.261 15.9325 12.6735C15.9371 12.6707 15.941 12.6669 15.9438 12.6626C15.9466 12.6583 15.9483 12.6535 15.9488 12.6485C16.1978 10.3861 15.5284 8.42009 14.1733 6.67551ZM8.01029 11.4575C7.41848 11.4575 6.93278 10.9825 6.93278 10.4004C6.93278 9.81826 7.41031 9.34149 8.01029 9.34149C8.61639 9.34149 9.09801 9.82005 9.0878 10.3986C9.0878 10.9825 8.61027 11.4575 8.01029 11.4575ZM11.9979 11.4575C11.4061 11.4575 10.9204 10.9825 10.9204 10.4004C10.9204 9.81826 11.3959 9.34149 11.9979 9.34149C12.604 9.34149 13.0856 9.82005 13.0754 10.3986C13.0754 10.9825 12.602 11.4575 11.9979 11.4575Z" fill="#FF9900"/>
</svg>
