<svg width="17" height="17" viewBox="0 0 17 17" fill="none" xmlns="http://www.w3.org/2000/svg">
<g clip-path="url(#clip0_2002_652)">
<path d="M1.10925 8.23249C1.10925 12.307 4.41228 15.61 8.48676 15.61C12.5612 15.61 15.8643 12.307 15.8643 8.23249C15.8643 4.15801 12.5612 0.85498 8.48676 0.85498C4.41228 0.85498 1.10925 4.15801 1.10925 8.23249Z" fill="#09090C"/>
<g clip-path="url(#clip1_2002_652)">
<path d="M10.389 12.3907C9.9965 12.3907 9.66256 12.1132 9.58054 11.7293C9.53953 11.5226 9.49266 11.2745 9.43994 10.9969C9.29933 10.1996 9.04155 9.89252 8.48498 9.86889H7.90498V9.30192H8.53771C9.19388 9.30192 9.60984 8.86488 9.60984 8.19751C9.60984 7.44155 9.16458 7.11082 8.52014 7.11082C8.40296 7.11082 7.63549 7.11082 6.75084 7.11082V12.0541C6.75084 12.2076 6.6278 12.3258 6.48134 12.3258C6.32902 12.3258 6.21184 12.2017 6.21184 12.0541V7.11082C5.52639 7.11082 4.83507 7.11082 4.36638 7.11082C4.05002 7.11082 3.7981 6.85686 3.7981 6.53794C3.7981 6.53794 5.01669 6.53794 6.21184 6.53794V5.84694C6.20598 4.57126 7.06134 3.53772 8.11003 3.53772H9.86762C10.0199 3.53772 10.1371 3.66174 10.1371 3.80939C10.1371 3.95704 10.0141 4.08107 9.86762 4.08107H8.11003C7.36013 4.08107 6.74498 4.87246 6.74498 5.84694V6.52613C7.58276 6.52613 8.30923 6.52613 8.47327 6.52613C9.12357 6.52613 9.55125 6.67968 9.85004 7.00451C10.0844 7.25847 10.2191 7.65416 10.2191 8.10892C10.2191 8.87079 9.82075 9.38461 9.32276 9.59131V9.61494C9.686 9.76849 9.90277 10.1878 10.0199 10.7902C10.0961 11.1977 10.1664 11.5403 10.225 11.806C10.2894 12.0777 10.3422 12.2726 10.389 12.3907Z" fill="white"/>
<path d="M11.7597 8.17393V8.39245C11.7597 8.49285 11.6777 8.57553 11.5781 8.57553H11.373C11.2734 8.57553 11.1914 8.49285 11.1914 8.39245V8.17393C11.1914 8.07353 11.2734 7.99084 11.373 7.99084H11.5781C11.6835 7.99084 11.7597 8.07353 11.7597 8.17393ZM11.748 9.41418V12.1782C11.748 12.2786 11.666 12.3612 11.5664 12.3612H11.3906C11.291 12.3612 11.209 12.2786 11.209 12.1782V9.41418C11.209 9.31378 11.291 9.23109 11.3906 9.23109H11.5664C11.6718 9.23109 11.748 9.31378 11.748 9.41418Z" fill="white"/>
</g>
</g>
<defs>
<clipPath id="clip0_2002_652">
<rect x="0.438599" y="0.184326" width="16.0964" height="16.0964" rx="8.04819" fill="white"/>
</clipPath>
<clipPath id="clip1_2002_652">
<rect width="7.96771" height="8.85301" fill="white" transform="translate(3.79199 3.53772)"/>
</clipPath>
</defs>
</svg>
