<svg width="32" height="32" viewBox="0 0 32 32" fill="none" xmlns="http://www.w3.org/2000/svg">
<path fill-rule="evenodd" clip-rule="evenodd" d="M16 2.66673C23.364 2.66673 29.3334 8.63614 29.3334 16.0001C29.3334 23.3634 23.364 29.3334 16 29.3334C8.63609 29.3334 2.66669 23.3634 2.66669 16.0001C2.66669 8.63614 8.63609 2.66673 16 2.66673Z" fill="#2775CA"/>
<path fill-rule="evenodd" clip-rule="evenodd" d="M13.5008 25.2703C13.5008 25.584 13.2551 25.7621 12.9518 25.6674C8.92044 24.3814 5.99756 20.6012 5.99756 16.1409C5.99756 11.6808 8.92044 7.90045 12.9518 6.61438C13.2551 6.52029 13.5008 6.69787 13.5008 7.0115V7.78575C13.5008 7.99454 13.3389 8.24029 13.14 8.30832C9.95044 9.47954 7.66559 12.5436 7.66559 16.1356C7.66559 19.7276 9.95044 22.7923 13.14 23.9629C13.3389 24.0362 13.5008 24.2765 13.5008 24.4861V25.2703Z" fill="white"/>
<path fill-rule="evenodd" clip-rule="evenodd" d="M16.8313 22.3892C16.8313 22.6195 16.6431 22.8077 16.4131 22.8077H15.5816C15.3516 22.8077 15.1634 22.6195 15.1634 22.3892V21.0717C13.3437 20.8261 12.455 19.8063 12.2144 18.4208C12.1725 18.1852 12.3607 17.971 12.6013 17.971H13.5529C13.7516 17.971 13.919 18.1123 13.9608 18.3107C14.1387 19.1369 14.6144 19.7696 16.0731 19.7696C17.1502 19.7696 17.9138 19.1683 17.9138 18.2693C17.9138 17.3696 17.464 17.0299 15.8849 16.7683C13.5529 16.4546 12.4497 15.7486 12.4497 13.9186C12.4497 12.5069 13.5166 11.409 15.1687 11.1736V9.88203C15.1687 9.65188 15.357 9.46355 15.5869 9.46355H16.4184C16.6484 9.46355 16.8366 9.65188 16.8366 9.88203V11.2102C18.1804 11.4511 19.0326 12.214 19.3099 13.4793C19.362 13.7202 19.1738 13.9446 18.9282 13.9446H18.0496C17.8614 13.9446 17.7046 13.819 17.6472 13.6361C17.4119 12.8313 16.8366 12.4863 15.8378 12.4863C14.7346 12.4863 14.1646 13.0195 14.1646 13.767C14.1646 14.5566 14.489 14.9537 16.1832 15.1999C18.4731 15.5136 19.6551 16.167 19.6551 18.1178C19.6551 19.5974 18.5569 20.7948 16.8366 21.0717V22.3892H16.8313Z" fill="white"/>
<path fill-rule="evenodd" clip-rule="evenodd" d="M19.0485 25.6675C18.7454 25.7622 18.4995 25.584 18.4995 25.2703V24.4967C18.4995 24.2665 18.6407 24.0523 18.8603 23.9735C22.0498 22.8023 24.3347 19.7382 24.3347 16.1462C24.3347 12.5543 22.0498 9.49016 18.8603 8.31895C18.6616 8.24561 18.4995 8.00531 18.4995 7.79576V7.02213C18.4995 6.70849 18.7454 6.52561 19.0485 6.6244C23.0798 7.91122 26.0027 11.6914 26.0027 16.1515C25.9977 20.6011 23.0798 24.3761 19.0485 25.6675Z" fill="white"/>
</svg>
