<svg width="18" height="13" viewBox="0 0 18 13" fill="none" xmlns="http://www.w3.org/2000/svg">
<path d="M16.3069 6.81989C17.896 5.27497 17.896 2.77302 16.3069 1.2281C14.9006 -0.139092 12.6844 -0.316826 11.0672 0.807002L11.0222 0.83708C10.6172 1.11872 10.5244 1.6656 10.8141 2.05661C11.1038 2.44763 11.6663 2.5406 12.0685 2.25895L12.1135 2.22888C13.0163 1.60271 14.251 1.70114 15.0328 2.46403C15.9188 3.32536 15.9188 4.71989 15.0328 5.58122L11.8772 8.65466C10.9913 9.51599 9.55689 9.51599 8.67095 8.65466C7.88626 7.89177 7.78501 6.69138 8.42908 5.81638L8.46001 5.77263C8.7497 5.37888 8.65408 4.832 8.25189 4.5531C7.8497 4.27419 7.28439 4.36442 6.99751 4.75544L6.96658 4.79919C5.80783 6.36872 5.99064 8.52341 7.39689 9.8906C8.98595 11.4355 11.5594 11.4355 13.1485 9.8906L16.3069 6.81989ZM1.69314 6.18005C0.104077 7.72497 0.104077 10.2269 1.69314 11.7718C3.09939 13.139 5.31564 13.3168 6.93283 12.1929L6.97783 12.1629C7.38283 11.8812 7.47564 11.3343 7.18595 10.9433C6.89626 10.5523 6.33376 10.4593 5.93158 10.741L5.88658 10.7711C4.98376 11.3972 3.74908 11.2988 2.9672 10.5359C2.08126 9.67185 2.08126 8.27731 2.9672 7.41599L6.12283 4.34528C7.00876 3.48395 8.44314 3.48395 9.32908 4.34528C10.1138 5.10817 10.215 6.30856 9.57095 7.1863L9.54001 7.23005C9.25033 7.6238 9.34595 8.17067 9.74814 8.44958C10.1503 8.72849 10.7156 8.63825 11.0025 8.24724L11.0335 8.20349C12.1922 6.63122 12.0094 4.47653 10.6031 3.10935C9.01408 1.56442 6.44064 1.56442 4.85158 3.10935L1.69314 6.18005Z" fill="black"/>
</svg>
