<svg width="34" height="32" viewBox="0 0 34 32" fill="none" xmlns="http://www.w3.org/2000/svg">
<path d="M32.3251 22.2444H14.1381C13.6448 22.2444 13.1954 22.5258 12.9692 22.9818L10.0407 28.9907L10.0313 29.0005L9.99983 29.0684C9.56306 29.9577 10.1946 31.0121 11.1624 31.0121H29.3589C29.8522 31.0121 30.3016 30.7307 30.5278 30.2747L33.4972 24.1978C33.9339 23.3019 33.3024 22.2476 32.3283 22.2476L32.3251 22.2444Z" fill="#FF9900"/>
<path d="M4.71143 15.7857C5.05079 15.7857 5.36501 15.5852 5.51897 15.2715L7.42943 11.3776H9.78293C10.1286 11.3776 10.4428 11.1771 10.5968 10.8634L11.3697 9.27868C11.5237 8.96173 11.8379 8.76445 12.1773 8.76445H27.2912C27.6212 8.76445 27.9291 8.57364 28.0831 8.2761C28.0925 8.2664 28.0925 8.25993 28.0988 8.25023L31.4704 1.35186C31.7783 0.727674 31.3321 0 30.6628 0H7.70908C7.36972 0 7.0555 0.200514 6.90154 0.514223L2.8701 8.76445L1.58808 11.3809L0.0955416 14.4371C-0.202967 15.0613 0.233797 15.7889 0.909369 15.7889H4.70829L4.71143 15.7857Z" fill="#FF9900"/>
<path d="M12.7266 22.6033C13.1948 22.6033 13.6127 22.3284 13.8232 21.9047L14.4297 20.6855C14.6308 20.2553 15.0581 19.9869 15.5263 19.9869H28.3182C28.7706 19.9869 29.1823 19.7379 29.3834 19.3401C29.3991 19.3239 29.4085 19.3078 29.4148 19.2916L31.2216 15.5885L32.4784 13.0239C32.8901 12.1765 32.3025 11.1804 31.3818 11.1804H10.8318C10.3637 11.1804 9.94575 11.4553 9.73522 11.879L7.91903 15.5885L6.68415 18.1208H6.67472L5.76349 19.9901L4.48775 22.6065L3.24659 25.155C2.82867 25.9927 3.42255 26.9888 4.34321 26.9888H7.51997C7.64252 26.9888 7.76192 26.9726 7.87504 26.9306C8.19869 26.84 8.47206 26.6071 8.6166 26.2902L10.4234 22.6033H12.7235H12.7266Z" fill="#FF9900"/>
</svg>
