<svg width="17" height="16" viewBox="0 0 17 16" fill="none" xmlns="http://www.w3.org/2000/svg">
<g clip-path="url(#clip0_63_325)">
<path d="M8.50024 1.4375C6.11552 1.4375 4.20597 2.51562 2.81586 3.79883C1.43461 5.07031 0.510829 6.59375 0.0740234 7.63965C-0.0233724 7.87109 -0.0233724 8.12891 0.0740234 8.36035C0.510829 9.40625 1.43461 10.9297 2.81586 12.2012C4.20597 13.4844 6.11552 14.5625 8.50024 14.5625C10.885 14.5625 12.7945 13.4844 14.1846 12.2012C15.5659 10.9268 16.4896 9.40625 16.9294 8.36035C17.0268 8.12891 17.0268 7.87109 16.9294 7.63965C16.4896 6.59375 15.5659 5.07031 14.1846 3.79883C12.7945 2.51562 10.885 1.4375 8.50024 1.4375ZM4.25024 8C4.25024 6.88112 4.69801 5.80806 5.49504 5.01689C6.29206 4.22572 7.37307 3.78125 8.50024 3.78125C9.62741 3.78125 10.7084 4.22572 11.5054 5.01689C12.3025 5.80806 12.7502 6.88112 12.7502 8C12.7502 9.11888 12.3025 10.1919 11.5054 10.9831C10.7084 11.7743 9.62741 12.2188 8.50024 12.2188C7.37307 12.2188 6.29206 11.7743 5.49504 10.9831C4.69801 10.1919 4.25024 9.11888 4.25024 8ZM8.50024 6.125C8.50024 7.15918 7.65319 8 6.61135 8C6.4018 8 6.20111 7.96484 6.01222 7.90332C5.84989 7.85059 5.661 7.9502 5.66691 8.12012C5.67576 8.32227 5.70527 8.52441 5.76135 8.72656C6.16569 10.2266 7.72107 11.1172 9.23218 10.7158C10.7433 10.3145 11.6405 8.77051 11.2362 7.27051C10.9086 6.05469 9.82541 5.2373 8.62125 5.1875C8.45007 5.18164 8.34972 5.36621 8.40284 5.53027C8.46482 5.71777 8.50024 5.91699 8.50024 6.125Z" fill="black"/>
</g>
<defs>
<clipPath id="clip0_63_325">
<rect width="17" height="15" fill="white" transform="translate(0 0.5)"/>
</clipPath>
</defs>
</svg>
