<svg width="50" height="50" viewBox="0 0 50 50" fill="none" xmlns="http://www.w3.org/2000/svg">
<rect width="50" height="50" rx="10" fill="#191919"/>
<path d="M24.2221 33.3125C25.0825 33.3125 25.7777 32.6143 25.7777 31.75C25.7777 30.8857 25.0825 30.1875 24.2221 30.1875H18.7777C17.9173 30.1875 17.2221 29.4893 17.2221 28.625V22.375H18.7777C19.4048 22.375 19.9735 21.9941 20.2166 21.4082C20.4596 20.8223 20.3235 20.1533 19.8811 19.7041L16.77 16.5791C16.1624 15.9688 15.1756 15.9688 14.568 16.5791L11.4568 19.7041C11.0096 20.1533 10.8784 20.8223 11.1214 21.4082C11.3645 21.9941 11.9284 22.375 12.5603 22.375H14.1159V28.625C14.1159 31.2129 16.2061 33.3125 18.7825 33.3125H24.227H24.2221ZM25.7777 17.6875C24.9173 17.6875 24.2221 18.3857 24.2221 19.25C24.2221 20.1143 24.9173 20.8125 25.7777 20.8125H31.2221C32.0825 20.8125 32.7777 21.5107 32.7777 22.375V28.625H31.2221C30.595 28.625 30.0263 29.0059 29.7832 29.5918C29.5402 30.1777 29.6763 30.8467 30.1186 31.2959L33.2298 34.4209C33.8374 35.0313 34.8242 35.0313 35.4318 34.4209L38.543 31.2959C38.9902 30.8467 39.1214 30.1777 38.8784 29.5918C38.6353 29.0059 38.0714 28.625 37.4395 28.625H35.8839V22.375C35.8839 19.7871 33.7936 17.6875 31.2173 17.6875H25.7777Z" fill="white"/>
</svg>
