<svg width="21" height="21" viewBox="0 0 21 21" fill="none" xmlns="http://www.w3.org/2000/svg">
<path fill-rule="evenodd" clip-rule="evenodd" d="M10.5 0.569336C16.023 0.569336 20.5 5.04639 20.5 10.5694C20.5 16.0919 16.023 20.5694 10.5 20.5694C4.97705 20.5694 0.5 16.0919 0.5 10.5694C0.5 5.04639 4.97705 0.569336 10.5 0.569336Z" fill="#2775CA"/>
<path fill-rule="evenodd" clip-rule="evenodd" d="M8.62569 17.5221C8.62569 17.7573 8.44148 17.8909 8.21398 17.8199C5.19045 16.8554 2.99829 14.0203 2.99829 10.675C2.99829 7.32991 5.19045 4.49467 8.21398 3.53013C8.44148 3.45956 8.62569 3.59274 8.62569 3.82797V4.40865C8.62569 4.56524 8.50432 4.74956 8.35512 4.80058C5.96296 5.67899 4.24932 7.97707 4.24932 10.671C4.24932 13.365 5.96296 15.6636 8.35512 16.5415C8.50432 16.5965 8.62569 16.7767 8.62569 16.9339V17.5221Z" fill="white"/>
<path fill-rule="evenodd" clip-rule="evenodd" d="M11.1235 15.3612C11.1235 15.5339 10.9824 15.6751 10.8099 15.6751H10.1863C10.0138 15.6751 9.87261 15.5339 9.87261 15.3612V14.3731C8.50784 14.1889 7.84136 13.4241 7.66091 12.385C7.62943 12.2083 7.77057 12.0476 7.95102 12.0476H8.66477C8.81375 12.0476 8.93932 12.1536 8.97068 12.3023C9.10409 12.922 9.46091 13.3966 10.5549 13.3966C11.3627 13.3966 11.9355 12.9455 11.9355 12.2713C11.9355 11.5965 11.5981 11.3418 10.4138 11.1455C8.66477 10.9103 7.83738 10.3808 7.83738 9.00825C7.83738 7.9495 8.6375 7.12609 9.87659 6.94949V5.98086C9.87659 5.80824 10.0178 5.66699 10.1902 5.66699H10.8139C10.9864 5.66699 11.1275 5.80824 11.1275 5.98086V6.97699C12.1353 7.15768 12.7745 7.72984 12.9825 8.67882C13.0216 8.8595 12.8805 9.02779 12.6963 9.02779H12.0373C11.8961 9.02779 11.7785 8.93359 11.7355 8.79643C11.559 8.19279 11.1275 7.93404 10.3784 7.93404C9.55102 7.93404 9.12352 8.33393 9.12352 8.89461C9.12352 9.48677 9.36682 9.78461 10.6375 9.96927C12.3549 10.2045 13.2414 10.6946 13.2414 12.1577C13.2414 13.2673 12.4177 14.1654 11.1275 14.3731V15.3612H11.1235Z" fill="white"/>
<path fill-rule="evenodd" clip-rule="evenodd" d="M12.7862 17.82C12.5589 17.891 12.3745 17.7574 12.3745 17.5222V16.942C12.3745 16.7693 12.4804 16.6087 12.6451 16.5496C15.0372 15.6712 16.7509 13.3731 16.7509 10.6791C16.7509 7.98512 15.0372 5.68705 12.6451 4.80864C12.4961 4.75364 12.3745 4.57341 12.3745 4.41625V3.83602C12.3745 3.60079 12.5589 3.46363 12.7862 3.53773C15.8097 4.50284 18.0019 7.33796 18.0019 10.6831C17.9982 14.0202 15.8097 16.8515 12.7862 17.82Z" fill="white"/>
</svg>
