<svg width="16" height="15" viewBox="0 0 16 15" fill="none" xmlns="http://www.w3.org/2000/svg">
<path d="M2 0.5C0.896875 0.5 0 1.39688 0 2.5V12.5C0 13.6031 0.896875 14.5 2 14.5H14C15.1031 14.5 16 13.6031 16 12.5V5.5C16 4.39687 15.1031 3.5 14 3.5H2.5C2.225 3.5 2 3.275 2 3C2 2.725 2.225 2.5 2.5 2.5H14C14.5531 2.5 15 2.05313 15 1.5C15 0.946875 14.5531 0.5 14 0.5H2ZM13 8C13.2652 8 13.5196 8.10536 13.7071 8.29289C13.8946 8.48043 14 8.73478 14 9C14 9.26522 13.8946 9.51957 13.7071 9.70711C13.5196 9.89464 13.2652 10 13 10C12.7348 10 12.4804 9.89464 12.2929 9.70711C12.1054 9.51957 12 9.26522 12 9C12 8.73478 12.1054 8.48043 12.2929 8.29289C12.4804 8.10536 12.7348 8 13 8Z" fill="black"/>
</svg>
