<svg width="8" height="14" viewBox="0 0 8 14" fill="none" xmlns="http://www.w3.org/2000/svg">
<path d="M3.31501 0.725261L1.92999 1.69614C1.67967 1.8716 1.64401 2.22863 1.85468 2.45014L3.30866 3.97896C3.49224 4.17199 3.49224 4.47507 3.30866 4.6681L0.350321 7.77871C0.157788 7.98115 0.168497 8.30208 0.374095 8.49124L5.48779 13.196C5.67573 13.3689 5.96377 13.3724 6.15584 13.2041L7.54772 11.9845C7.7829 11.7785 7.77335 11.4095 7.52782 11.2159L4.10855 8.51943C3.86301 8.3258 3.85346 7.95683 4.08865 7.75076L7.57082 4.69959C7.79813 4.50041 7.79813 4.14665 7.57082 3.94747L3.93153 0.758629C3.75825 0.6068 3.50366 0.593021 3.31501 0.725261Z" fill="#E63358"/>
</svg>
