<svg width="31" height="31" viewBox="0 0 31 31" fill="none" xmlns="http://www.w3.org/2000/svg">
<path d="M15.5198 3.16649C22.424 3.16649 28.0198 8.76342 28.0198 15.6665C28.0198 22.5707 22.424 28.1665 15.5198 28.1665C8.61673 28.1665 3.0198 22.5701 3.0198 15.6665C3.0198 8.76342 8.61673 3.16649 15.5198 3.16649Z" fill="#F5AC37"/>
<path d="M15.9801 16.5491H20.7299C20.8311 16.5491 20.8789 16.5491 20.8863 16.4164C20.9251 15.9332 20.9251 15.4472 20.8863 14.9634C20.8863 14.8695 20.8396 14.8307 20.7378 14.8307H11.2849C11.1679 14.8307 11.1363 14.8695 11.1363 14.9792V16.3697C11.1363 16.5491 11.1363 16.5491 11.3237 16.5491H15.9801ZM20.3558 13.2056C20.3693 13.1702 20.3693 13.1314 20.3558 13.0965C20.2765 12.9238 20.1826 12.759 20.0734 12.6043C19.9092 12.3399 19.7157 12.0964 19.4952 11.8775C19.3911 11.7453 19.2707 11.6267 19.1357 11.526C18.4596 10.9505 17.6558 10.5433 16.7918 10.3385C16.3558 10.2406 15.9103 10.194 15.4637 10.1979H11.2685C11.1515 10.1979 11.1358 10.2446 11.1358 10.3464V13.1196C11.1358 13.2366 11.1358 13.2681 11.2843 13.2681H20.2996C20.2996 13.2681 20.3778 13.2523 20.3935 13.2056H20.3553H20.3558ZM20.3558 18.1742C20.2231 18.1596 20.0892 18.1596 19.9564 18.1742H11.2927C11.1757 18.1742 11.1363 18.1742 11.1363 18.3306V21.0419C11.1363 21.1668 11.1363 21.1983 11.2927 21.1983H15.2927C15.484 21.2129 15.6752 21.1994 15.8625 21.1594C16.443 21.1178 17.014 20.9918 17.5585 20.7843C17.7565 20.7156 17.9477 20.6262 18.1283 20.5188H18.1829C19.1206 20.0311 19.8822 19.2649 20.3626 18.3244C20.3626 18.3244 20.4171 18.2063 20.3558 18.1754V18.1742ZM9.5664 22.604V22.5573V20.737V20.1199V18.2839C9.5664 18.1821 9.5664 18.1669 9.44152 18.1669H7.74613C7.65219 18.1669 7.61338 18.1669 7.61338 18.042V16.5576H9.42577C9.52702 16.5576 9.5664 16.5576 9.5664 16.4248V14.9561C9.5664 14.8622 9.5664 14.8391 9.44152 14.8391H7.74613C7.65219 14.8391 7.61338 14.8391 7.61338 14.7143V13.3395C7.61338 13.2534 7.61338 13.2304 7.73825 13.2304H9.41789C9.5349 13.2304 9.5664 13.2304 9.5664 13.0819V8.87095C9.5664 8.74607 9.5664 8.71457 9.72277 8.71457H15.5818C16.0071 8.73144 16.4295 8.77813 16.8475 8.8552C17.7087 9.01438 18.5361 9.32208 19.2927 9.76139C19.7944 10.0567 20.2563 10.4133 20.6674 10.824C20.9768 11.1452 21.2558 11.4928 21.5033 11.8629C21.7491 12.2381 21.9533 12.6392 22.1136 13.0582C22.1333 13.1674 22.238 13.2411 22.3471 13.2225H23.7455C23.9249 13.2225 23.9249 13.2225 23.9328 13.3946V14.676C23.9328 14.8009 23.8861 14.8324 23.7607 14.8324H22.6823C22.5732 14.8324 22.5417 14.8324 22.5496 14.973C22.5923 15.4489 22.5923 15.9265 22.5496 16.4023C22.5496 16.5351 22.5496 16.5508 22.6987 16.5508H23.9322C23.9868 16.6211 23.9322 16.6915 23.9322 16.7623C23.9401 16.8529 23.9401 16.9446 23.9322 17.0352V17.9807C23.9322 18.1135 23.8934 18.1529 23.7759 18.1529H22.2993C22.1963 18.1332 22.0962 18.199 22.0726 18.3014C21.721 19.2154 21.1585 20.035 20.4318 20.692C20.1663 20.9311 19.8872 21.1561 19.5959 21.3636C19.2831 21.5436 18.9788 21.731 18.6582 21.8795C18.0681 22.145 17.4494 22.3407 16.8143 22.465C16.2113 22.573 15.5998 22.622 14.9861 22.6135H9.56415V22.6056L9.5664 22.604Z" fill="#FEFEFD"/>
</svg>
