<svg width="31" height="31" viewBox="0 0 31 31" fill="none" xmlns="http://www.w3.org/2000/svg">
<path fill-rule="evenodd" clip-rule="evenodd" d="M15.0602 0.66655C23.3446 0.66655 30.0602 7.38212 30.0602 15.6666C30.0602 23.9503 23.3446 30.6666 15.0602 30.6666C6.77576 30.6666 0.0601883 23.9503 0.0601883 15.6666C0.0601883 7.38212 6.77576 0.66655 15.0602 0.66655Z" fill="#2775CA"/>
<path fill-rule="evenodd" clip-rule="evenodd" d="M12.2485 26.0956C12.2485 26.4484 11.9722 26.6489 11.6309 26.5423C7.09566 25.0955 3.80742 20.8428 3.80742 15.825C3.80742 10.8073 7.09566 6.55448 11.6309 5.10766C11.9722 5.00181 12.2485 5.20158 12.2485 5.55442V6.42544C12.2485 6.66033 12.0665 6.93681 11.8427 7.01334C8.25441 8.33096 5.68395 11.7781 5.68395 15.819C5.68395 19.86 8.25441 23.3078 11.8427 24.6247C12.0665 24.7072 12.2485 24.9776 12.2485 25.2133V26.0956Z" fill="white"/>
<path fill-rule="evenodd" clip-rule="evenodd" d="M15.9953 22.8543C15.9953 23.1134 15.7836 23.3251 15.5248 23.3251H14.5894C14.3306 23.3251 14.1189 23.1134 14.1189 22.8543V21.3722C12.0717 21.0959 11.072 19.9485 10.8013 18.3899C10.7541 18.1248 10.9658 17.8838 11.2365 17.8838H12.3071C12.5306 17.8838 12.719 18.0429 12.766 18.266C12.9661 19.1955 13.5013 19.9073 15.1423 19.9073C16.3541 19.9073 17.2132 19.2308 17.2132 18.2194C17.2132 17.2073 16.7071 16.8251 14.9306 16.5307C12.3071 16.1779 11.0661 15.3836 11.0661 13.3248C11.0661 11.7367 12.2662 10.5016 14.1249 10.2367V8.78375C14.1249 8.52483 14.3367 8.31296 14.5953 8.31296H15.5308C15.7895 8.31296 16.0012 8.52483 16.0012 8.78375V10.278C17.513 10.549 18.4718 11.4072 18.7837 12.8307C18.8424 13.1017 18.6307 13.3542 18.3544 13.3542H17.3659C17.1542 13.3542 16.9778 13.2128 16.9132 13.0071C16.6484 12.1017 16.0012 11.7135 14.8776 11.7135C13.6365 11.7135 12.9953 12.3134 12.9953 13.1544C12.9953 14.0426 13.3602 14.4894 15.2662 14.7664C17.8423 15.1192 19.172 15.8544 19.172 18.049C19.172 19.7135 17.9366 21.0606 16.0012 21.3722V22.8543H15.9953Z" fill="white"/>
<path fill-rule="evenodd" clip-rule="evenodd" d="M18.4896 26.5424C18.1487 26.6489 17.872 26.4484 17.872 26.0956V25.2253C17.872 24.9663 18.0309 24.7253 18.2779 24.6367C21.8661 23.3191 24.4366 19.872 24.4366 15.831C24.4366 11.79 21.8661 8.34291 18.2779 7.0253C18.0544 6.9428 17.872 6.67246 17.872 6.43672V5.56638C17.872 5.21354 18.1487 5.0078 18.4896 5.11894C23.0249 6.56661 26.3131 10.8193 26.3131 15.837C26.3075 20.8427 23.0249 25.0896 18.4896 26.5424Z" fill="white"/>
</svg>
