<svg width="27" height="27" viewBox="0 0 27 27" fill="none" xmlns="http://www.w3.org/2000/svg">
<path d="M26.7534 13.4631C26.7534 20.6706 20.9109 26.5131 13.7034 26.5131C6.49616 26.5131 0.653412 20.6706 0.653412 13.4631C0.653412 6.25572 6.49616 0.413101 13.7034 0.413101C20.9109 0.413101 26.7534 6.25572 26.7534 13.4631Z" fill="#1BA27A"/>
<path d="M19.8282 6.99368H7.47116V9.97691H12.1581V14.3617H15.1413V9.97691H19.8282V6.99368Z" fill="white"/>
<path d="M13.6779 14.8288C9.80078 14.8288 6.65743 14.2152 6.65743 13.4581C6.65743 12.7012 9.80065 12.0875 13.6779 12.0875C17.5551 12.0875 20.6983 12.7012 20.6983 13.4581C20.6983 14.2152 17.5551 14.8288 13.6779 14.8288ZM21.5608 13.6866C21.5608 12.7105 18.0315 11.9193 13.6779 11.9193C9.32446 11.9193 5.79495 12.7105 5.79495 13.6866C5.79495 14.5462 8.53167 15.2624 12.1581 15.4211V21.7157H15.1411V15.4236C18.7955 15.2699 21.5608 14.5507 21.5608 13.6866Z" fill="white"/>
</svg>
